%FSLAX34Y34*%
%MOMM*%
%LNCOPPER_BOTTOM*%
G71*
G01*
%ADD10C,1.550*%
%ADD11C,0.100*%
%ADD12C,0.148*%
%ADD13C,0.750*%
%LPD*%
G36*
X0Y1000000D02*
X300000Y1000000D01*
X300000Y700000D01*
X0Y700000D01*
X0Y1000000D01*
G37*
%LPC*%
G54D10*
X74791Y892135D02*
X82291Y892135D01*
G54D10*
X186788Y892134D02*
X194288Y892134D01*
G54D10*
X74791Y879434D02*
X82291Y879434D01*
G54D10*
X74791Y866734D02*
X82291Y866734D01*
G54D10*
X74791Y854034D02*
X82291Y854034D01*
G54D10*
X74791Y841334D02*
X82291Y841334D01*
G54D10*
X74791Y828634D02*
X82291Y828634D01*
G54D10*
X74791Y815934D02*
X82291Y815934D01*
G54D10*
X96441Y913784D02*
X96441Y906284D01*
G54D10*
X109141Y913784D02*
X109141Y906284D01*
G54D10*
X121841Y913784D02*
X121841Y906284D01*
G54D10*
X134541Y913784D02*
X134541Y906284D01*
G54D10*
X147240Y913785D02*
X147240Y906285D01*
G54D10*
X159941Y913784D02*
X159941Y906284D01*
G54D10*
X172640Y913784D02*
X172640Y906284D01*
G54D10*
X186788Y879434D02*
X194288Y879434D01*
G54D10*
X186788Y866734D02*
X194288Y866734D01*
G54D10*
X186788Y854034D02*
X194288Y854034D01*
G54D10*
X186788Y841334D02*
X194288Y841334D01*
G54D10*
X186788Y828634D02*
X194288Y828634D01*
G54D10*
X186788Y815934D02*
X194288Y815934D01*
G54D10*
X96441Y801784D02*
X96441Y794284D01*
G54D10*
X109141Y801784D02*
X109141Y794284D01*
G54D10*
X121841Y801784D02*
X121841Y794284D01*
G54D10*
X134541Y801784D02*
X134541Y794284D01*
G54D10*
X147241Y801784D02*
X147241Y794284D01*
G54D10*
X159941Y801784D02*
X159941Y794284D01*
G54D10*
X172640Y801784D02*
X172640Y794284D01*
G36*
X78541Y910034D02*
X46434Y910034D01*
X46434Y798116D01*
X78541Y798116D01*
X78541Y910034D01*
G37*
G54D11*
X78541Y910034D02*
X46434Y910034D01*
X46434Y798116D01*
X78541Y798116D01*
X78541Y910034D01*
G36*
X194072Y910034D02*
X194072Y944959D01*
X78541Y944959D01*
X78541Y910034D01*
X194072Y910034D01*
G37*
G54D11*
X194072Y910034D02*
X194072Y944959D01*
X78541Y944959D01*
X78541Y910034D01*
X194072Y910034D01*
G36*
X78541Y798034D02*
X214709Y798034D01*
X214709Y751284D01*
X78541Y751284D01*
X78541Y798034D01*
G37*
G54D11*
X78541Y798034D02*
X214709Y798034D01*
X214709Y751284D01*
X78541Y751284D01*
X78541Y798034D01*
G36*
X190538Y798034D02*
X228600Y798034D01*
X228600Y948531D01*
X190538Y948531D01*
X190538Y798034D01*
G37*
G54D11*
X190538Y798034D02*
X228600Y798034D01*
X228600Y948531D01*
X190538Y948531D01*
X190538Y798034D01*
G36*
X96441Y798034D02*
X78541Y815934D01*
X64253Y815934D01*
X46434Y798116D01*
X66278Y798116D01*
X77391Y787003D01*
X85409Y787003D01*
X96441Y798034D01*
G37*
G54D11*
X96441Y798034D02*
X78541Y815934D01*
X64253Y815934D01*
X46434Y798116D01*
X66278Y798116D01*
X77391Y787003D01*
X85409Y787003D01*
X96441Y798034D01*
G36*
X78541Y892135D02*
X96441Y910034D01*
X96441Y914003D01*
X78581Y931862D01*
X78581Y928291D01*
X62309Y912019D01*
X62309Y908367D01*
X78541Y892135D01*
G37*
G54D11*
X78541Y892135D02*
X96441Y910034D01*
X96441Y914003D01*
X78581Y931862D01*
X78581Y928291D01*
X62309Y912019D01*
X62309Y908367D01*
X78541Y892135D01*
G36*
X190538Y892137D02*
X172640Y910034D01*
X172640Y911225D01*
X193278Y931862D01*
X199231Y931862D01*
X217488Y913606D01*
X212010Y913606D01*
X190538Y892137D01*
G37*
G54D11*
X190538Y892137D02*
X172640Y910034D01*
X172640Y911225D01*
X193278Y931862D01*
X199231Y931862D01*
X217488Y913606D01*
X212010Y913606D01*
X190538Y892137D01*
G36*
X190538Y815934D02*
X190538Y815932D01*
X172640Y798034D01*
X172640Y792956D01*
X189706Y775891D01*
X208359Y775891D01*
X228203Y795734D01*
X210738Y795734D01*
X190538Y815934D01*
G37*
G54D11*
X190538Y815934D02*
X190538Y815932D01*
X172640Y798034D01*
X172640Y792956D01*
X189706Y775891D01*
X208359Y775891D01*
X228203Y795734D01*
X210738Y795734D01*
X190538Y815934D01*
%LPD*%
G54D12*
G36*
X147852Y910447D02*
X154136Y901121D01*
X152913Y900297D01*
X146628Y909623D01*
X147852Y910447D01*
G37*
G36*
X147978Y910035D02*
X147978Y898035D01*
X146502Y898035D01*
X146502Y910035D01*
X147978Y910035D01*
G37*
G36*
X147852Y909623D02*
X141567Y900297D01*
X140344Y901121D01*
X146628Y910447D01*
X147852Y909623D01*
G37*
G54D13*
X74791Y892135D02*
X82291Y892135D01*
G54D13*
X186788Y892134D02*
X194288Y892134D01*
G54D13*
X74791Y879434D02*
X82291Y879434D01*
G54D13*
X74791Y866734D02*
X82291Y866734D01*
G54D13*
X74791Y854034D02*
X82291Y854034D01*
G54D13*
X74791Y841334D02*
X82291Y841334D01*
G54D13*
X74791Y828634D02*
X82291Y828634D01*
G54D13*
X74791Y815934D02*
X82291Y815934D01*
G54D13*
X96441Y913784D02*
X96441Y906284D01*
G54D13*
X109141Y913784D02*
X109141Y906284D01*
G54D13*
X121841Y913784D02*
X121841Y906284D01*
G54D13*
X134541Y913784D02*
X134541Y906284D01*
G54D13*
X147240Y913785D02*
X147240Y906285D01*
G54D13*
X159941Y913784D02*
X159941Y906284D01*
G54D13*
X172640Y913784D02*
X172640Y906284D01*
G54D13*
X186788Y879434D02*
X194288Y879434D01*
G54D13*
X186788Y866734D02*
X194288Y866734D01*
G54D13*
X186788Y854034D02*
X194288Y854034D01*
G54D13*
X186788Y841334D02*
X194288Y841334D01*
G54D13*
X186788Y828634D02*
X194288Y828634D01*
G54D13*
X186788Y815934D02*
X194288Y815934D01*
G54D13*
X96441Y801784D02*
X96441Y794284D01*
G54D13*
X109141Y801784D02*
X109141Y794284D01*
G54D13*
X121841Y801784D02*
X121841Y794284D01*
G54D13*
X134541Y801784D02*
X134541Y794284D01*
G54D13*
X147241Y801784D02*
X147241Y794284D01*
G54D13*
X159941Y801784D02*
X159941Y794284D01*
G54D13*
X172640Y801784D02*
X172640Y794284D01*
M02*
