%FSLAX34Y34*%
%MOMM*%
%LNSILK_BOTTOM*%
G71*
G01*
%ADD10C,0.111*%
%LPD*%
G54D10*
X172861Y882253D02*
X172861Y891142D01*
X169528Y891142D01*
X168195Y890586D01*
X167528Y889475D01*
X167528Y888364D01*
X168195Y887253D01*
X169528Y886698D01*
X172861Y886698D01*
G54D10*
X165084Y882253D02*
X165084Y891142D01*
G54D10*
X157307Y883920D02*
X157974Y882809D01*
X159307Y882253D01*
X160640Y882253D01*
X161974Y882809D01*
X162640Y883920D01*
X162640Y889475D01*
X161974Y890586D01*
X160640Y891142D01*
X159307Y891142D01*
X157974Y890586D01*
X157307Y889475D01*
G54D10*
X152286Y887809D02*
X148953Y891142D01*
X148953Y882253D01*
G54D10*
X141176Y889475D02*
X141843Y890586D01*
X143176Y891142D01*
X144509Y891142D01*
X145843Y890586D01*
X146509Y889475D01*
X146509Y886698D01*
X146509Y886142D01*
X144509Y887253D01*
X143176Y887253D01*
X141843Y886698D01*
X141176Y885586D01*
X141176Y883920D01*
X141843Y882809D01*
X143176Y882253D01*
X144509Y882253D01*
X145843Y882809D01*
X146509Y883920D01*
X146509Y886698D01*
G54D10*
X138732Y882253D02*
X138732Y891142D01*
X134066Y891142D01*
G54D10*
X138732Y886698D02*
X134066Y886698D01*
G54D10*
X128288Y886698D02*
X129621Y886698D01*
X130955Y887253D01*
X131621Y888364D01*
X131621Y889475D01*
X130955Y890586D01*
X129621Y891142D01*
X128288Y891142D01*
X126955Y890586D01*
X126288Y889475D01*
X126288Y888364D01*
X126955Y887253D01*
X128288Y886698D01*
X126955Y886142D01*
X126288Y885031D01*
X126288Y883920D01*
X126955Y882809D01*
X128288Y882253D01*
X129621Y882253D01*
X130955Y882809D01*
X131621Y883920D01*
X131621Y885031D01*
X130955Y886142D01*
X129621Y886698D01*
G54D10*
X120511Y886698D02*
X121844Y886698D01*
X123178Y887253D01*
X123844Y888364D01*
X123844Y889475D01*
X123178Y890586D01*
X121844Y891142D01*
X120511Y891142D01*
X119178Y890586D01*
X118511Y889475D01*
X118511Y888364D01*
X119178Y887253D01*
X120511Y886698D01*
X119178Y886142D01*
X118511Y885031D01*
X118511Y883920D01*
X119178Y882809D01*
X120511Y882253D01*
X121844Y882253D01*
X123178Y882809D01*
X123844Y883920D01*
X123844Y885031D01*
X123178Y886142D01*
X121844Y886698D01*
G54D10*
X116067Y882253D02*
X110734Y891142D01*
G54D10*
X104957Y886698D02*
X106290Y886698D01*
X107624Y887253D01*
X108290Y888364D01*
X108290Y889475D01*
X107624Y890586D01*
X106290Y891142D01*
X104957Y891142D01*
X103624Y890586D01*
X102957Y889475D01*
X102957Y888364D01*
X103624Y887253D01*
X104957Y886698D01*
X103624Y886142D01*
X102957Y885031D01*
X102957Y883920D01*
X103624Y882809D01*
X104957Y882253D01*
X106290Y882253D01*
X107624Y882809D01*
X108290Y883920D01*
X108290Y885031D01*
X107624Y886142D01*
X106290Y886698D01*
G54D10*
X100513Y891142D02*
X95180Y891142D01*
X95847Y890031D01*
X97180Y888364D01*
X98513Y886142D01*
X99180Y884475D01*
X99180Y882253D01*
G54D10*
X154859Y876061D02*
X154859Y867727D01*
X154192Y867172D01*
X153526Y867394D01*
G54D10*
X156192Y872172D02*
X153526Y872172D01*
G54D10*
X147082Y868505D02*
X147082Y870727D01*
X147748Y871838D01*
X149082Y872172D01*
X150415Y871838D01*
X151082Y870727D01*
X151082Y868505D01*
X150415Y867394D01*
X149082Y867172D01*
X147748Y867394D01*
X147082Y868505D01*
G54D10*
X142060Y867172D02*
X138727Y876061D01*
X135394Y867172D01*
G54D10*
X140727Y870505D02*
X136727Y870505D01*
G54D10*
X132950Y867172D02*
X132950Y876061D01*
X129616Y876061D01*
X128283Y875505D01*
X127616Y874394D01*
X127616Y868838D01*
X128283Y867727D01*
X129616Y867172D01*
X132950Y867172D01*
G54D10*
X125172Y867172D02*
X125172Y876061D01*
X121839Y876061D01*
X120506Y875505D01*
X119839Y874394D01*
X119839Y873283D01*
X120506Y872172D01*
X121839Y871616D01*
X120506Y871061D01*
X119839Y869950D01*
X119839Y868838D01*
X120506Y867727D01*
X121839Y867172D01*
X125172Y867172D01*
G54D10*
X125172Y871616D02*
X121839Y871616D01*
G54D10*
X166402Y859422D02*
X165735Y860533D01*
X164402Y861089D01*
X163068Y861089D01*
X161735Y860533D01*
X161068Y859422D01*
X161068Y858311D01*
X161735Y857200D01*
X163068Y856644D01*
X161735Y856089D01*
X161068Y854978D01*
X161068Y853867D01*
X161735Y852756D01*
X163068Y852200D01*
X164402Y852200D01*
X165735Y852756D01*
X166402Y853867D01*
G54D10*
X154625Y852200D02*
X154625Y861089D01*
X158625Y855533D01*
X158625Y854422D01*
X153292Y854422D01*
G54D10*
X145514Y852200D02*
X150848Y852200D01*
X150848Y852756D01*
X150181Y853867D01*
X146181Y857200D01*
X145514Y858311D01*
X145514Y859422D01*
X146181Y860533D01*
X147514Y861089D01*
X148848Y861089D01*
X150181Y860533D01*
X150848Y859422D01*
G54D10*
X143071Y853867D02*
X142404Y852756D01*
X141071Y852200D01*
X139738Y852200D01*
X138404Y852756D01*
X137738Y853867D01*
X137738Y854978D01*
X138404Y856089D01*
X139738Y856644D01*
X141071Y856644D01*
X142404Y857200D01*
X143071Y858311D01*
X143071Y859422D01*
X142404Y860533D01*
X141071Y861089D01*
X139738Y861089D01*
X138404Y860533D01*
X137738Y859422D01*
G54D10*
X129960Y859422D02*
X129960Y853867D01*
X130627Y852756D01*
X131960Y852200D01*
X133294Y852200D01*
X134627Y852756D01*
X135294Y853867D01*
X135294Y859422D01*
X134627Y860533D01*
X133294Y861089D01*
X131960Y861089D01*
X130627Y860533D01*
X129960Y859422D01*
G54D10*
X123517Y852200D02*
X123517Y861089D01*
X127517Y855533D01*
X127517Y854422D01*
X122184Y854422D01*
G54D10*
X115740Y852200D02*
X115740Y861089D01*
X119740Y855533D01*
X119740Y854422D01*
X114406Y854422D01*
G54D10*
X106630Y859422D02*
X106630Y853867D01*
X107296Y852756D01*
X108630Y852200D01*
X109963Y852200D01*
X111296Y852756D01*
X111963Y853867D01*
X111963Y859422D01*
X111296Y860533D01*
X109963Y861089D01*
X108630Y861089D01*
X107296Y860533D01*
X106630Y859422D01*
G54D10*
X156986Y832247D02*
X156986Y837247D01*
G54D10*
X156986Y836358D02*
X155653Y837247D01*
X154320Y836914D01*
X153653Y836136D01*
X153653Y832247D01*
G54D10*
X153653Y836358D02*
X152320Y837247D01*
X150986Y836914D01*
X150320Y836136D01*
X150320Y832247D01*
G54D10*
X147875Y836691D02*
X146542Y837247D01*
X144942Y837247D01*
X143875Y836136D01*
X143875Y832247D01*
G54D10*
X143875Y833914D02*
X144542Y835025D01*
X145875Y835247D01*
X147209Y835025D01*
X147875Y833914D01*
X147609Y832802D01*
X146542Y832247D01*
X145875Y832247D01*
X145609Y832247D01*
X144542Y832802D01*
X143875Y833914D01*
G54D10*
X141431Y837247D02*
X136098Y832247D01*
G54D10*
X141431Y832247D02*
X136098Y837247D01*
G54D10*
X133654Y837802D02*
X130321Y841136D01*
X130321Y832247D01*
G54D10*
X127877Y837247D02*
X123877Y837247D01*
X127877Y832247D01*
X123877Y832247D01*
G54D10*
X121433Y837247D02*
X117433Y837247D01*
X121433Y832247D01*
X117433Y832247D01*
G54D10*
X114989Y837247D02*
X110989Y837247D01*
X114989Y832247D01*
X110989Y832247D01*
G54D10*
X157872Y818312D02*
X163205Y818312D01*
X163205Y818868D01*
X162538Y819979D01*
X158538Y823312D01*
X157872Y824423D01*
X157872Y825534D01*
X158538Y826645D01*
X159872Y827201D01*
X161205Y827201D01*
X162538Y826645D01*
X163205Y825534D01*
G54D10*
X150095Y825534D02*
X150761Y826645D01*
X152095Y827201D01*
X153428Y827201D01*
X154761Y826645D01*
X155428Y825534D01*
X155428Y822757D01*
X155428Y822201D01*
X153428Y823312D01*
X152095Y823312D01*
X150761Y822757D01*
X150095Y821645D01*
X150095Y819979D01*
X150761Y818868D01*
X152095Y818312D01*
X153428Y818312D01*
X154761Y818868D01*
X155428Y819979D01*
X155428Y822757D01*
G54D10*
X147651Y822201D02*
X142318Y822201D01*
G54D10*
X134541Y825534D02*
X134541Y819979D01*
X135207Y818868D01*
X136541Y818312D01*
X137874Y818312D01*
X139207Y818868D01*
X139874Y819979D01*
X139874Y825534D01*
X139207Y826645D01*
X137874Y827201D01*
X136541Y827201D01*
X135207Y826645D01*
X134541Y825534D01*
G54D10*
X132097Y819979D02*
X131430Y818868D01*
X130097Y818312D01*
X128764Y818312D01*
X127430Y818868D01*
X126764Y819979D01*
X126764Y822757D01*
X126764Y823312D01*
X128764Y822201D01*
X130097Y822201D01*
X131430Y822757D01*
X132097Y823868D01*
X132097Y825534D01*
X131430Y826645D01*
X130097Y827201D01*
X128764Y827201D01*
X127430Y826645D01*
X126764Y825534D01*
X126764Y822757D01*
G54D10*
X124320Y822201D02*
X118987Y822201D01*
G54D10*
X111210Y818312D02*
X116543Y818312D01*
X116543Y818868D01*
X115876Y819979D01*
X111876Y823312D01*
X111210Y824423D01*
X111210Y825534D01*
X111876Y826645D01*
X113210Y827201D01*
X114543Y827201D01*
X115876Y826645D01*
X116543Y825534D01*
G54D10*
X103433Y818312D02*
X108766Y818312D01*
X108766Y818868D01*
X108099Y819979D01*
X104099Y823312D01*
X103433Y824423D01*
X103433Y825534D01*
X104099Y826645D01*
X105433Y827201D01*
X106766Y827201D01*
X108099Y826645D01*
X108766Y825534D01*
M02*
