%FSLAX34Y34*%
%MOMM*%
%LNCOPPER_TOP*%
G71*
G01*
%ADD10R,1.000X0.370*%
%ADD11R,0.370X1.000*%
%ADD12C,0.750*%
%ADD13C,0.250*%
%LPD*%
X106041Y873534D02*
G54D10*
D03*
X106041Y867034D02*
G54D10*
D03*
X106041Y860534D02*
G54D10*
D03*
X106041Y854034D02*
G54D10*
D03*
X106041Y847534D02*
G54D10*
D03*
X106041Y841034D02*
G54D10*
D03*
X106041Y834534D02*
G54D10*
D03*
X163041Y873534D02*
G54D10*
D03*
X163041Y867034D02*
G54D10*
D03*
X163041Y860534D02*
G54D10*
D03*
X163041Y854034D02*
G54D10*
D03*
X163041Y847534D02*
G54D10*
D03*
X163041Y841034D02*
G54D10*
D03*
X163041Y834534D02*
G54D10*
D03*
X154041Y882534D02*
G54D11*
D03*
X147541Y882534D02*
G54D11*
D03*
X141041Y882534D02*
G54D11*
D03*
X134541Y882534D02*
G54D11*
D03*
X128041Y882534D02*
G54D11*
D03*
X121541Y882534D02*
G54D11*
D03*
X115041Y882534D02*
G54D11*
D03*
X154041Y825534D02*
G54D11*
D03*
X147540Y825534D02*
G54D11*
D03*
X141040Y825534D02*
G54D11*
D03*
X134541Y825534D02*
G54D11*
D03*
X128041Y825534D02*
G54D11*
D03*
X121541Y825534D02*
G54D11*
D03*
X115041Y825534D02*
G54D11*
D03*
G54D12*
X74791Y892135D02*
X82291Y892135D01*
G54D12*
X186788Y892134D02*
X194288Y892134D01*
G54D12*
X74791Y879434D02*
X82291Y879434D01*
G54D12*
X74791Y866734D02*
X82291Y866734D01*
G54D12*
X74791Y854034D02*
X82291Y854034D01*
G54D12*
X74791Y841334D02*
X82291Y841334D01*
G54D12*
X74791Y828634D02*
X82291Y828634D01*
G54D12*
X74791Y815934D02*
X82291Y815934D01*
G54D12*
X96441Y913784D02*
X96441Y906284D01*
G54D12*
X109141Y913784D02*
X109141Y906284D01*
G54D12*
X121841Y913784D02*
X121841Y906284D01*
G54D12*
X134541Y913784D02*
X134541Y906284D01*
G54D12*
X147240Y913785D02*
X147240Y906285D01*
G54D12*
X159941Y913784D02*
X159941Y906284D01*
G54D12*
X172640Y913784D02*
X172640Y906284D01*
G54D12*
X186788Y879434D02*
X194288Y879434D01*
G54D12*
X186788Y866734D02*
X194288Y866734D01*
G54D12*
X186788Y854034D02*
X194288Y854034D01*
G54D12*
X186788Y841334D02*
X194288Y841334D01*
G54D12*
X186788Y828634D02*
X194288Y828634D01*
G54D12*
X186788Y815934D02*
X194288Y815934D01*
G54D12*
X96441Y801784D02*
X96441Y794284D01*
G54D12*
X109141Y801784D02*
X109141Y794284D01*
G54D12*
X121841Y801784D02*
X121841Y794284D01*
G54D12*
X134541Y801784D02*
X134541Y794284D01*
G54D12*
X147241Y801784D02*
X147241Y794284D01*
G54D12*
X159941Y801784D02*
X159941Y794284D01*
G54D12*
X172640Y801784D02*
X172640Y794284D01*
G54D13*
X163041Y873534D02*
X170644Y873534D01*
X172641Y871538D01*
X172641Y868759D01*
X171053Y867172D01*
X163178Y867172D01*
X163041Y867034D01*
G54D13*
X190538Y866734D02*
X181412Y866734D01*
X179784Y868362D01*
X179784Y877094D01*
X181769Y879078D01*
X190182Y879078D01*
X190538Y879434D01*
G54D13*
X172641Y868759D02*
X179388Y868759D01*
X179784Y868362D01*
G54D13*
X190538Y854034D02*
X181809Y854034D01*
X175419Y860425D01*
X163150Y860425D01*
X163041Y860534D01*
G54D13*
X163041Y847534D02*
X172831Y847534D01*
X178991Y841375D01*
X190498Y841375D01*
X190538Y841334D01*
G54D13*
X163041Y841034D02*
X170600Y841034D01*
X175022Y836612D01*
X175022Y832644D01*
X178991Y828675D01*
X190498Y828675D01*
X190538Y828634D01*
G54D13*
X128041Y825534D02*
X128041Y818109D01*
X131366Y814784D01*
X137716Y814784D01*
X140891Y817959D01*
X140891Y825384D01*
X141040Y825534D01*
G54D13*
X134541Y798034D02*
X134541Y814784D01*
G54D13*
X141041Y882534D02*
X141041Y889959D01*
X137716Y893284D01*
X131366Y893284D01*
X128190Y890109D01*
X128190Y882684D01*
X128041Y882534D01*
G54D13*
X137716Y893284D02*
X137716Y893366D01*
X141288Y896938D01*
X145256Y896938D01*
X146844Y898525D01*
X146844Y909638D01*
X147241Y910034D01*
G54D13*
X190538Y892134D02*
X177362Y892134D01*
X167878Y882650D01*
X154156Y882650D01*
X154041Y882534D01*
G54D13*
X190538Y815934D02*
X177444Y815934D01*
X167878Y825500D01*
X154075Y825500D01*
X154041Y825534D01*
G54D13*
X78541Y879434D02*
X88544Y879434D01*
X91678Y876300D01*
X91678Y871141D01*
X95647Y867172D01*
X105903Y867172D01*
X106041Y867034D01*
G54D13*
X106041Y860534D02*
X94744Y860534D01*
X88503Y866775D01*
X78581Y866775D01*
X78541Y866734D01*
G54D13*
X106041Y847534D02*
X96647Y847534D01*
X90488Y841375D01*
X78581Y841375D01*
X78541Y841334D01*
G54D13*
X121541Y825534D02*
X121541Y798334D01*
X121841Y798034D01*
G54D13*
X115041Y825534D02*
X115041Y817112D01*
X109141Y811212D01*
X109141Y798034D01*
M02*
