; Drill file
; Format: 2.4 (00.0000)
M48
INCH
T01C0.0236
%
G05
G90
T01
X003800Y031420
X004300Y031420
X004800Y031420
X005300Y031420
X005800Y031420
X006300Y031420
X006800Y031420
X007500Y032120
X007500Y032620
X007500Y033120
X007500Y033620
X007500Y034120
X007500Y034620
X007500Y035120
X006800Y035830
X006300Y035830
X005800Y035830
X005300Y035830
X004800Y035830
X004300Y035830
X003800Y035830
X003090Y035120
X003090Y034620
X003090Y034120
X003090Y033620
X003090Y033120
X003090Y032620
X003090Y032120
M30
